<svg width="23" height="23" viewBox="0 0 23 23" fill="none" xmlns="http://www.w3.org/2000/svg">
<path fill-rule="evenodd" clip-rule="evenodd" d="M2.71509 11.4563C2.71509 6.47387 6.74975 2.43018 11.7412 2.43018C16.7236 2.43018 20.7673 6.47387 20.7673 11.4563C20.7673 16.4477 16.7236 20.4824 11.7412 20.4824C6.74975 20.4824 2.71509 16.4477 2.71509 11.4563ZM13.754 13.1078L15.2162 8.48648C15.3155 8.17056 15.0266 7.8727 14.7107 7.97199L10.0894 9.41617C9.89982 9.47935 9.74638 9.62377 9.69222 9.81331L8.24804 14.4437C8.14876 14.7506 8.44662 15.0485 8.75351 14.9492L13.3568 13.505C13.5464 13.4508 13.6998 13.2974 13.754 13.1078Z" fill="black"/>
</svg>
